<mxfile host="app.diagrams.net" modified="2023-12-18T08:33:51.520Z" agent="Mozilla/5.0 (Windows NT 10.0; Win64; x64) AppleWebKit/537.36 (KHTML, like Gecko) Chrome/120.0.0.0 Safari/537.36" etag="vkTmyoFSySv24W4saLLM" version="22.1.11" type="github">
  <diagram name="Página-1" id="35GgWt1w4V4TGdVvapww">
    <mxGraphModel dx="720" dy="783" grid="1" gridSize="10" guides="1" tooltips="1" connect="1" arrows="1" fold="1" page="1" pageScale="1" pageWidth="1169" pageHeight="827" math="0" shadow="0">
      <root>
        <mxCell id="0" />
        <mxCell id="1" parent="0" />
        <mxCell id="NSk3KKELW8-BR6B0Czky-7" style="edgeStyle=orthogonalEdgeStyle;rounded=0;orthogonalLoop=1;jettySize=auto;html=1;exitX=0.5;exitY=1;exitDx=0;exitDy=0;entryX=0.5;entryY=0;entryDx=0;entryDy=0;" edge="1" parent="1" source="NSk3KKELW8-BR6B0Czky-1" target="NSk3KKELW8-BR6B0Czky-2">
          <mxGeometry relative="1" as="geometry" />
        </mxCell>
        <mxCell id="NSk3KKELW8-BR6B0Czky-10" style="edgeStyle=orthogonalEdgeStyle;rounded=0;orthogonalLoop=1;jettySize=auto;html=1;exitX=0.5;exitY=1;exitDx=0;exitDy=0;" edge="1" parent="1" source="NSk3KKELW8-BR6B0Czky-1" target="NSk3KKELW8-BR6B0Czky-3">
          <mxGeometry relative="1" as="geometry" />
        </mxCell>
        <mxCell id="NSk3KKELW8-BR6B0Czky-1" value="Documento&amp;nbsp;&lt;br&gt;XHTML" style="rounded=0;whiteSpace=wrap;html=1;labelBackgroundColor=none;fillColor=#FAD9D5;strokeColor=#D0CEE2;fontColor=#1A1A1A;" vertex="1" parent="1">
          <mxGeometry x="494" y="70" width="120" height="60" as="geometry" />
        </mxCell>
        <mxCell id="NSk3KKELW8-BR6B0Czky-8" style="edgeStyle=orthogonalEdgeStyle;rounded=0;orthogonalLoop=1;jettySize=auto;html=1;exitX=0.5;exitY=1;exitDx=0;exitDy=0;entryX=0.5;entryY=0;entryDx=0;entryDy=0;" edge="1" parent="1" source="NSk3KKELW8-BR6B0Czky-2" target="NSk3KKELW8-BR6B0Czky-4">
          <mxGeometry relative="1" as="geometry" />
        </mxCell>
        <mxCell id="NSk3KKELW8-BR6B0Czky-2" value="Elemento&lt;br&gt;Head" style="rounded=0;whiteSpace=wrap;html=1;labelBackgroundColor=none;fillColor=#FAD9D5;strokeColor=#D0CEE2;fontColor=#1A1A1A;" vertex="1" parent="1">
          <mxGeometry x="280" y="170" width="120" height="60" as="geometry" />
        </mxCell>
        <mxCell id="NSk3KKELW8-BR6B0Czky-3" value="Elemento&lt;br&gt;Body" style="rounded=0;whiteSpace=wrap;html=1;labelBackgroundColor=none;fillColor=#FAD9D5;strokeColor=#D0CEE2;fontColor=#1A1A1A;" vertex="1" parent="1">
          <mxGeometry x="720" y="170" width="120" height="60" as="geometry" />
        </mxCell>
        <mxCell id="NSk3KKELW8-BR6B0Czky-9" style="edgeStyle=orthogonalEdgeStyle;rounded=0;orthogonalLoop=1;jettySize=auto;html=1;" edge="1" parent="1" source="NSk3KKELW8-BR6B0Czky-4" target="NSk3KKELW8-BR6B0Czky-5">
          <mxGeometry relative="1" as="geometry" />
        </mxCell>
        <mxCell id="NSk3KKELW8-BR6B0Czky-4" value="Elemento&lt;br&gt;Title" style="rounded=0;whiteSpace=wrap;html=1;labelBackgroundColor=none;fillColor=#FAD9D5;strokeColor=#D0CEE2;fontColor=#1A1A1A;" vertex="1" parent="1">
          <mxGeometry x="280" y="290" width="120" height="60" as="geometry" />
        </mxCell>
        <mxCell id="NSk3KKELW8-BR6B0Czky-5" value="Texto&lt;br&gt;Titulo de la página" style="rounded=0;whiteSpace=wrap;html=1;labelBackgroundColor=none;fillColor=#FAD9D5;strokeColor=#D0CEE2;fontColor=#1A1A1A;" vertex="1" parent="1">
          <mxGeometry x="280" y="410" width="120" height="60" as="geometry" />
        </mxCell>
        <mxCell id="NSk3KKELW8-BR6B0Czky-6" value="Elemento&lt;br&gt;H1" style="rounded=0;whiteSpace=wrap;html=1;labelBackgroundColor=none;fillColor=#FAD9D5;strokeColor=#D0CEE2;fontColor=#1A1A1A;" vertex="1" parent="1">
          <mxGeometry x="494" y="290" width="120" height="60" as="geometry" />
        </mxCell>
        <mxCell id="NSk3KKELW8-BR6B0Czky-11" value="Elemento&lt;br&gt;P" style="rounded=0;whiteSpace=wrap;html=1;labelBackgroundColor=none;fillColor=#FAD9D5;strokeColor=#D0CEE2;fontColor=#1A1A1A;" vertex="1" parent="1">
          <mxGeometry x="630" y="290" width="120" height="60" as="geometry" />
        </mxCell>
        <mxCell id="NSk3KKELW8-BR6B0Czky-14" style="edgeStyle=orthogonalEdgeStyle;rounded=0;orthogonalLoop=1;jettySize=auto;html=1;exitX=0.5;exitY=1;exitDx=0;exitDy=0;entryX=0.5;entryY=0;entryDx=0;entryDy=0;" edge="1" parent="1" source="NSk3KKELW8-BR6B0Czky-12" target="NSk3KKELW8-BR6B0Czky-13">
          <mxGeometry relative="1" as="geometry" />
        </mxCell>
        <mxCell id="NSk3KKELW8-BR6B0Czky-12" value="Elemento&lt;br&gt;P" style="rounded=0;whiteSpace=wrap;html=1;labelBackgroundColor=none;fillColor=#FAD9D5;strokeColor=#D0CEE2;fontColor=#1A1A1A;" vertex="1" parent="1">
          <mxGeometry x="770" y="290" width="120" height="60" as="geometry" />
        </mxCell>
        <mxCell id="NSk3KKELW8-BR6B0Czky-13" value="Elemento&lt;br&gt;A" style="rounded=0;whiteSpace=wrap;html=1;labelBackgroundColor=none;fillColor=#FAD9D5;strokeColor=#D0CEE2;fontColor=#1A1A1A;" vertex="1" parent="1">
          <mxGeometry x="770" y="380" width="120" height="60" as="geometry" />
        </mxCell>
      </root>
    </mxGraphModel>
  </diagram>
</mxfile>
